<svg xmlns="http://www.w3.org/2000/svg" viewBox="0 0 980 1180"><defs><linearGradient id="g" x1="0" x2="1" y1="0" y2="1"><stop stop-color="#0d6b55"/><stop offset="1" stop-color="#062f28"/></linearGradient><linearGradient id="s" x1="0" x2="0" y1="0" y2="1"><stop stop-color="#fbf7ee"/><stop offset="1" stop-color="#edd39a"/></linearGradient></defs><rect width="980" height="1180" fill="url(#g)"/><circle cx="760" cy="170" r="130" fill="#c79a3b" opacity=".18"/><path d="M0 290c190-80 340 50 510-20 150-62 260-54 470 30v880H0z" fill="#fbf7ee" opacity=".12"/><rect x="142" y="645" width="700" height="295" rx="18" fill="#fbf7ee"/><rect x="205" y="580" width="574" height="110" rx="55" fill="url(#s)"/><path d="M492 300c112 80 178 168 190 266H302c12-98 78-186 190-266z" fill="#fbf7ee"/><path d="M492 374c64 52 101 111 108 176H384c7-65 44-124 108-176z" fill="#06483b" opacity=".9"/><g fill="#c79a3b"><rect x="120" y="380" width="64" height="560" rx="32"/><rect x="796" y="380" width="64" height="560" rx="32"/><circle cx="152" cy="344" r="42"/><circle cx="828" cy="344" r="42"/></g><rect x="386" y="742" width="210" height="198" rx="105" fill="#06483b"/><g fill="#0d6b55"><circle cx="262" cy="1010" r="42"/><circle cx="360" cy="1024" r="38"/><circle cx="640" cy="1024" r="38"/><circle cx="728" cy="1010" r="42"/></g><g fill="none" stroke="#edd39a" stroke-width="2" opacity=".45"><path d="M60 90h860M60 150h860M60 210h860"/><path d="M100 90l60 60-60 60M220 90l60 60-60 60M340 90l60 60-60 60M460 90l60 60-60 60M580 90l60 60-60 60M700 90l60 60-60 60"/></g></svg>
